<svg width="12" height="12" viewBox="0 0 12 12" fill="none" xmlns="http://www.w3.org/2000/svg">
<path fill-rule="evenodd" clip-rule="evenodd" d="M10.9787 6C10.9787 3.25021 8.74979 1.02128 6 1.02128C3.25021 1.02128 1.02128 3.25021 1.02128 6C1.02128 8.74979 3.25021 10.9787 6 10.9787C8.74979 10.9787 10.9787 8.74979 10.9787 6ZM3.66383 0.47234C4.40426 0.158298 5.19064 0 6 0C6.80936 0 7.59574 0.158298 8.33617 0.47234C9.05106 0.773617 9.69191 1.20511 10.2434 1.7566C10.7923 2.30809 11.2264 2.94894 11.5277 3.66383C11.8417 4.40426 12 5.19064 12 6C12 6.80936 11.8417 7.59574 11.5277 8.33617C11.2264 9.05106 10.7949 9.69191 10.2434 10.2434C9.69191 10.7923 9.05106 11.2264 8.33617 11.5277C7.59574 11.8417 6.80936 12 6 12C5.19064 12 4.40426 11.8417 3.66383 11.5277C2.94894 11.2264 2.30809 10.7949 1.7566 10.2434C1.20766 9.69191 0.773617 9.05106 0.47234 8.33617C0.158298 7.59574 0 6.80936 0 6C0 5.19064 0.158298 4.40426 0.47234 3.66383C0.773617 2.94894 1.20511 2.30809 1.7566 1.7566C2.30809 1.20766 2.94894 0.773617 3.66383 0.47234ZM6 2.17021C3.88596 2.17021 2.17021 3.88596 2.17021 6C2.17021 8.11404 3.88596 9.82979 6 9.82979C8.11404 9.82979 9.82979 8.11404 9.82979 6C9.82979 3.88596 8.11404 2.17021 6 2.17021Z" fill="white"/>
</svg>
